<?xml version="1.0" encoding="utf-8"?>
<!-- Generator: Adobe Illustrator 16.0.0, SVG Export Plug-In . SVG Version: 6.00 Build 0)  -->
<!DOCTYPE svg PUBLIC "-//W3C//DTD SVG 1.1//EN" "http://www.w3.org/Graphics/SVG/1.1/DTD/svg11.dtd">
<svg version="1.1" id="Capa_1" xmlns="http://www.w3.org/2000/svg" xmlns:xlink="http://www.w3.org/1999/xlink" x="0px" y="0px"
	 width="24px" height="24px" viewBox="0 0 24 24" enable-background="new 0 0 24 24" xml:space="preserve">
<path fill="none" d="M0,0h24v24H0V0z"/>
<path fill="#F4F6FF" d="M12,2C8.13,2,5,5.13,5,9c0,5.25,7,13,7,13s7-7.75,7-13C19,5.13,15.87,2,12,2z M7,9c0-2.76,2.24-5,5-5
	s5,2.24,5,5c0,2.88-2.88,7.189-5,9.88C9.92,16.21,7,11.85,7,9z"/>
<circle fill="#F4F6FF" cx="12" cy="9" r="2.5"/>
</svg>
